<?xml version="1.0" encoding="UTF-8"?>
<svg width="13px" height="9px" viewBox="0 0 13 9" version="1.1" xmlns="http://www.w3.org/2000/svg" xmlns:xlink="http://www.w3.org/1999/xlink">
    <!-- Generator: Sketch 39.1 (31720) - http://www.bohemiancoding.com/sketch -->
    <title>editor-quote</title>
    <desc>Created with Sketch.</desc>
    <defs>
        <rect id="path-1" x="0" y="0" width="6" height="6" rx="1"></rect>
        <mask id="mask-2" maskContentUnits="userSpaceOnUse" maskUnits="objectBoundingBox" x="0" y="0" width="6" height="6" fill="white">
            <use xlink:href="#path-1"></use>
        </mask>
        <rect id="path-3" x="7" y="0" width="6" height="6" rx="1"></rect>
        <mask id="mask-4" maskContentUnits="userSpaceOnUse" maskUnits="objectBoundingBox" x="0" y="0" width="6" height="6" fill="white">
            <use xlink:href="#path-3"></use>
        </mask>
    </defs>
    <g id="Page-1" stroke="none" stroke-width="1" fill="none" fill-rule="evenodd">
        <g id="editor-icons" transform="translate(0.000000, -29.000000)" fill="#7C7D7E">
            <g id="editor-quote" transform="translate(0.000000, 29.000000)">
                <use id="Rectangle-2" stroke="#7C7D7E" mask="url(#mask-2)" stroke-width="2" xlink:href="#path-1"></use>
                <use id="Rectangle-2" stroke="#7C7D7E" mask="url(#mask-4)" stroke-width="2" xlink:href="#path-3"></use>
                <path d="M3.01757812,5.38354492 C3.01757812,5.38354492 3.08488012,6.36404173 2.88378906,6.82641613 C2.51530004,7.67369342 2.1574707,8.69311535 2.1574707,8.69311535 C2.1574707,8.69311535 2.95696521,8.33345712 3.53369141,7.76831066 C4.14047758,7.17370777 4.60571289,6.00830089 4.60571289,6.00830089 C4.60571289,6.00830089 4.80322422,4.9944844 4.60571289,4.48486327 C4.39448708,3.93985587 4.03474424,3.71315342 3.8293457,3.43432617 C3.54201455,3.0442759 3.17596038,3.46480478 2.99516528,3.727794 C2.92586919,3.82859388 2.88378906,3.90625 2.88378906,3.90625 L3.01757812,5.38354492 Z" id="Path-3"></path>
                <path d="M10.0175781,5.38354492 C10.0175781,5.38354492 10.0848801,6.36404173 9.88378906,6.82641613 C9.51530004,7.67369342 9.1574707,8.69311535 9.1574707,8.69311535 C9.1574707,8.69311535 9.95696521,8.33345712 10.5336914,7.76831066 C11.1404776,7.17370777 11.6057129,6.00830089 11.6057129,6.00830089 C11.6057129,6.00830089 11.8032242,4.9944844 11.6057129,4.48486327 C11.3944871,3.93985587 11.0347442,3.71315342 10.8293457,3.43432617 C10.5420146,3.0442759 10.1759604,3.46480478 9.99516528,3.727794 C9.92586919,3.82859388 9.88378906,3.90625 9.88378906,3.90625 L10.0175781,5.38354492 Z" id="Path-3"></path>
            </g>
        </g>
    </g>
</svg>